<?xml version="1.0" standalone="no"?>
<!DOCTYPE svg PUBLIC "-//W3C//DTD SVG 1.0//EN" "http://www.w3.org/TR/2001/REC-SVG-20010904/DTD/svg10.dtd">
<svg xmlns="http://www.w3.org/2000/svg" xmlns:xlink="http://www.w3.org/1999/xlink" id="body_1" width="140" height="31">

<defs>
    <linearGradient transform="matrix(1 0 0 1 0 0)"  id="1" x1="0.137" y1="0.294" x2="0.758" y2="0.755">
        <stop stop-color="#4B91FA" offset="0%"/>
        <stop stop-color="#D2E4FE" offset="100%"/>
    </linearGradient>
    <linearGradient transform="matrix(1 0 0 1 0 0)"  id="228" x1="0.736" y1="0.185" x2="0.234" y2="0.373">
        <stop stop-color="#4B91FA" offset="0%"/>
        <stop stop-color="#D2E4FE" offset="100%"/>
    </linearGradient>
</defs>

<g transform="matrix(0.6796116 0 0 0.6739131 0 0)">
	<g transform="matrix(0.9982312 0 0 0.9936707 0 0)">
	</g>
    <path transform="matrix(0.9982312 0 0 0.9936707 0 0)"  d="M32.938 0.232C 53.5 2.746 65.607 23.31 53.536 38.7C 46.072998 48.214 37.967 48.707 39.921997 40.643C 40.805996 36.997 37.774 35.06 33.44 35.06C 28.591 35.06 27.119999 36.760002 22.962997 39.448C 18.805996 42.136 4.051 44.644 0.509 30.4L0.509 30.4L32.938 0.232zM28.953 15.078C 20.428999 15.695 17.153 25.468 23.647999 27.204C 30.142998 28.94 35.514 24.157001 46.881996 33.739C 46.881996 33.739 49.397995 27.877998 43.728996 21.085C 40.06651 16.808754 34.560345 14.570288 28.953 15.078z" stroke="none" fill="url(#1)" />
	<g transform="matrix(0.9982312 0 0 0.9936707 0 0)">
	</g>
    <path transform="matrix(0.9982312 0 0 0.9936707 0 0)"  d="M32.938 0.232C 53.5 2.746 65.607 23.31 53.536 38.7C 49.707 43.581 45.709 46.087 42.988 46.282C 44.556507 45.044533 45.947815 43.59771 47.123 41.982002C 56.447002 29.524002 47.095 12.882002 31.213001 10.842003C 15.331001 8.802004 3.426 23.738 6.162 35.267C 6.5627155 37.134953 7.3645477 38.89352 8.512 40.420998C 5 38.985 1.9 35.977 0.509 30.4C -3.034 16.161 12.376 -2.282 32.938 0.232z" stroke="none" fill="url(#228)" />
	<g transform="matrix(0.9982312 0 0 0.9936707 -8.811391 2.971075)">
	</g>
    <path transform="matrix(0.9982312 0 0 0.9936707 -8.811391 2.971075)"  d="M152.33 1.85L152.33 17.755L149.653 17.755L149.408 16.349998L149.341 16.349998C 148.91875 16.75414 148.43718 17.09137 147.91301 17.349998C 147.4018 17.611326 146.83615 17.748371 146.26201 17.749998C 145.60458 17.75928 144.9533 17.622667 144.35501 17.349998C 143.78384 17.083136 143.28056 16.690298 142.88301 16.200998C 142.45248 15.6619625 142.13054 15.044573 141.93501 14.382998C 141.70114 13.593908 141.5882 12.773933 141.6 11.950998C 141.58607 11.122881 141.72157 10.299033 142 9.518998C 142.2395 8.853432 142.59875 8.237292 143.06 7.7009983C 143.47774 7.2186184 143.99039 6.827486 144.566 6.551998C 145.11594 6.288333 145.71811 6.1516314 146.32799 6.151998C 146.8811 6.1338344 147.4309 6.244407 147.93399 6.474998C 148.38148 6.701967 148.79459 6.9911704 149.161 7.333998L149.161 7.333998L149.049 5.6159983L149.049 1.85L152.33 1.85zM147.2 8.832C 146.58775 8.832711 146.00903 9.111593 145.627 9.59C 145.13745 10.259838 144.904 11.082878 144.969 11.91C 144.90343 12.751231 145.09824 13.59227 145.527 14.319C 145.89368 14.822268 146.48904 15.107172 147.111 15.077001C 147.46663 15.080747 147.81815 15.000577 148.137 14.843C 148.49535 14.647802 148.80742 14.377671 149.05199 14.051001L149.05199 14.051001L149.05199 9.568C 148.79097 9.322748 148.48549 9.12962 148.152 8.999C 147.84708 8.8873205 147.52472 8.830773 147.2 8.832z" stroke="none" fill="#4B91FA" fill-rule="evenodd" />
	<g transform="matrix(0.9982312 0 0 0.9936707 48.826477 -2.339101)">
	</g>
    <path transform="matrix(0.9982312 0 0 0.9936707 48.826477 -2.339101)"  d="M40.941 23.1C 41.672577 23.11882 42.396404 22.94648 43.041 22.6C 43.657494 22.2473 44.20829 21.79056 44.669 21.25L44.669 21.25L44.758 21.25L45 23.1L47.677002 23.1L47.677002 11.5L44.4 11.5L44.4 19.04C 44.112762 19.437084 43.75313 19.77636 43.34 20.04C 43.002544 20.222603 42.623634 20.314919 42.24 20.308C 41.755722 20.369228 41.274307 20.175074 40.968002 19.795C 40.70832 19.293617 40.592377 18.730177 40.633003 18.167L40.633003 18.167L40.633003 11.5L37.35 11.5L37.35 18.594C 37.28642 19.755049 37.58255 20.907442 38.197998 21.894C 38.84671 22.737635 39.8808 23.192287 40.941 23.1z" stroke="none" fill="#4B91FA" fill-rule="evenodd" />
	<g transform="matrix(0.9982312 0 0 0.9936707 29.337015 -2.339101)">
	</g>
    <path transform="matrix(0.9982312 0 0 0.9936707 29.337015 -2.339101)"  d="M78.757 23.1C 79.55686 23.093279 80.35075 22.961695 81.11 22.710001C 81.924385 22.447744 82.67886 22.027006 83.33 21.472L83.33 21.472L81.991 19.4C 81.58203 19.695032 81.14046 19.941992 80.674995 20.136C 80.1663 20.347631 79.61993 20.453775 79.06899 20.448C 78.22455 20.49783 77.399666 20.180891 76.80585 19.578445C 76.21202 18.976002 75.907 18.146637 75.968994 17.303C 75.92524 16.44429 76.2497 15.607663 76.86099 15.002999C 77.49143 14.424116 78.32585 14.119122 79.18099 14.155C 80.0702 14.179303 80.92903 14.483779 81.634995 15.025L81.634995 15.025L83.15199 12.995C 82.629524 12.535204 82.02908 12.172502 81.37899 11.924C 80.62046 11.631645 79.812836 11.487704 79 11.5C 78.17381 11.496504 77.35263 11.628245 76.569 11.89C 75.82414 12.134652 75.13182 12.516938 74.528 13.017C 73.93481 13.515326 73.45566 14.135326 73.123 14.835C 72.763084 15.606073 72.5842 16.449211 72.6 17.3C 72.58493 18.1451 72.74425 18.984232 73.068 19.765C 73.360504 20.460274 73.80466 21.081404 74.368004 21.583C 74.939316 22.081858 75.60233 22.464653 76.32001 22.710001C 77.104385 22.977106 77.928444 23.108984 78.757 23.1z" stroke="none" fill="#4B91FA" fill-rule="evenodd" />
	<g transform="matrix(0.9982312 0 0 0.9936707 66.93239 1.2927654)">
	</g>
    <path transform="matrix(0.9982312 0 0 0.9936707 66.93239 1.2927654)"  d="M14.348 19.444L14.348 16.678L7.879 16.678L7.879 4.9L4.6 4.9L4.6 19.444L14.348 19.444z" stroke="none" fill="#4B91FA" fill-rule="evenodd" />
	<g transform="matrix(0.9982312 0 0 0.9936707 5.011117 3.9895875)">
	</g>
    <path transform="matrix(0.9982312 0 0 0.9936707 5.011117 3.9895875)"  d="M118.786 4.038C 119.35861 4.061414 119.91941 3.8706782 120.359 3.503C 120.77189 3.1370883 120.9972 2.6041188 120.972 2.053C 120.99273 1.4931011 120.769005 0.9518516 120.359 0.56999993C 119.44784 -0.18842268 118.12516 -0.18842268 117.214005 0.56999993C 116.80399 0.9518516 116.58027 1.4931011 116.601006 2.053C 116.5758 2.6041188 116.80111 3.1370883 117.214005 3.503C 117.65333 3.870442 118.21373 4.061162 118.786 4.038z" stroke="none" fill="#4B91FA" fill-rule="evenodd" />
	<g transform="matrix(0.9982312 0 0 0.9936707 9.654892 -2.339101)">
	</g>
    <path transform="matrix(0.9982312 0 0 0.9936707 9.654892 -2.339101)"  d="M115.918 23.1L115.918 11.5L108.2 11.5L108.2 14.065001L112.639 14.065001L112.639 23.1L115.918 23.1z" stroke="none" fill="#4B91FA" fill-rule="evenodd" />
	<g transform="matrix(0.9982312 0 0 0.9936707 -29.184288 1.2927654)">
	</g>
    <path transform="matrix(0.9982312 0 0 0.9936707 -29.184288 1.2927654)"  d="M183 4.9L183.282 4.9C 183.89397 4.9087152 184.5044 4.963873 185.108 5.065C 185.70079 5.1572523 186.27159 5.3575735 186.792 5.656C 187.2559 5.9263883 187.64366 6.310013 187.919 6.771C 188.21193 7.3028054 188.35469 7.9042773 188.332 8.511C 188.33133 8.843618 188.28249 9.174385 188.187 9.493C 188.08942 9.822404 187.93472 10.13211 187.73 10.408C 187.51138 10.7003765 187.24777 10.956221 186.94899 11.166C 186.61243 11.4 186.23383 11.566727 185.83398 11.657001L185.83398 11.657001L185.83398 11.746L186.01498 11.782001C 186.83383 11.916344 187.59393 12.2920475 188.19798 12.861C 188.76161 13.489773 189.04976 14.318182 188.99799 15.161C 189.01573 15.825398 188.87015 16.483995 188.57399 17.079C 188.2942 17.611183 187.8884 18.066778 187.39198 18.406C 186.85266 18.77063 186.25208 19.035181 185.61899 19.187C 184.89911 19.363428 184.16013 19.449757 183.41899 19.444L183.41899 19.444L178.45 19.444L178.45 4.9L183 4.9zM183.156 13.087L181.72801 13.087L181.72801 16.9L183.156 16.9C 184.91068 16.9 185.78801 16.238333 185.78801 14.915C 185.83293 14.371335 185.59206 13.843395 185.15201 13.521C 184.54147 13.185547 183.84671 13.034439 183.15201 13.0859995zM182.86601 7.443L181.72801 7.443L181.72801 10.767L182.84302 10.767C 183.46193 10.822182 184.07993 10.651701 184.58302 10.287001C 184.94464 9.953971 185.14049 9.478088 185.11803 8.987C 185.16045 8.523487 184.95181 8.072666 184.57103 7.8050003C 184.04623 7.5297585 183.45514 7.4061384 182.86403 7.4480004z" stroke="none" fill="#4B91FA" fill-rule="evenodd" />
	<g transform="matrix(0.9982312 0 0 0.9936707 -47.92708 2.971075)">
	</g>
    <path transform="matrix(0.9982312 0 0 0.9936707 -47.92708 2.971075)"  d="M219.778 17.755C 220.09091 17.756313 220.40366 17.741293 220.715 17.71C 220.99767 17.68 221.26433 17.639 221.515 17.587C 221.76567 17.535 222.01834 17.471668 222.273 17.397L222.273 17.397L223.09799 17.151999L222.362 14.742998C 222.05916 14.865294 221.74542 14.958712 221.425 15.021998C 221.16124 15.072154 220.89348 15.098261 220.625 15.099998C 220.40265 15.100168 220.1813 15.07023 219.967 15.010999C 219.7545 14.953463 219.55675 14.851179 219.387 14.710999C 219.21008 14.560461 219.07275 14.368877 218.987 14.152999C 218.88252 13.879018 218.83324 13.58709 218.842 13.293999L218.842 13.293999L218.842 1.85L212.35 1.85L212.35 4.438L215.56201 4.438L215.56201 13.16C 215.49606 14.370582 215.87283 15.563803 216.62201 16.517C 217.43246 17.38601 218.59288 17.841204 219.778 17.755z" stroke="none" fill="#4B91FA" fill-rule="evenodd" />
	<g transform="matrix(0.9982312 0 0 0.9936707 -67.277794 -2.339101)">
	</g>
    <path transform="matrix(0.9982312 0 0 0.9936707 -67.277794 -2.339101)"  d="M250.941 23.1C 251.67258 23.11882 252.39641 22.94648 253.041 22.6C 253.65747 22.247252 254.20825 21.790516 254.669 21.25L254.669 21.25L254.75801 21.25L255 23.1L257.677 23.1L257.677 11.5L254.4 11.5L254.4 19.04C 254.11275 19.437082 253.75313 19.77636 253.34 20.04C 253.00252 20.222559 252.62361 20.314873 252.23999 20.308C 251.7557 20.36923 251.27429 20.175074 250.96799 19.795C 250.70828 19.293617 250.59235 18.730177 250.63298 18.167L250.63298 18.167L250.63298 11.5L247.35 11.5L247.35 18.594C 247.28638 19.755054 247.5825 20.90747 248.19801 21.894C 248.84685 22.737476 249.88083 23.19209 250.941 23.1z" stroke="none" fill="#4B91FA" fill-rule="evenodd" />
	<g transform="matrix(0.9982312 0 0 0.9936707 -86.434845 -2.339101)">
	</g>
    <path transform="matrix(0.9982312 0 0 0.9936707 -86.434845 -2.339101)"  d="M287.755 11.5C 288.5249 11.485365 289.29022 11.621241 290.008 11.9C 290.62787 12.144056 291.18442 12.525246 291.636 13.014999C 292.07486 13.503388 292.4091 14.076501 292.61798 14.698999C 292.84634 15.378078 292.95956 16.090572 292.95297 16.807C 292.95435 17.078995 292.9393 17.350811 292.90796 17.620998C 292.87796 17.866333 292.8483 18.056 292.81897 18.189999L292.81897 18.189999L285.36798 18.189999C 285.46646 18.932102 285.87073 19.599232 286.48297 20.029999C 287.11127 20.423195 287.8421 20.62121 288.58298 20.598999C 289.0691 20.601467 289.55322 20.537542 290.02197 20.408998C 290.5124 20.267967 290.98718 20.077314 291.43896 19.839998L291.43896 19.839998L292.50998 21.802998C 291.85825 22.2166 291.1512 22.535772 290.40997 22.750998C 289.67245 22.976204 288.9061 23.092762 288.13498 23.096998C 287.3157 23.104145 286.50116 22.972275 285.72598 22.706999C 285.00888 22.462408 284.34863 22.075315 283.78497 21.568998C 283.2296 21.060284 282.7868 20.441023 282.485 19.750998C 282.15146 18.977592 281.98615 18.142136 282 17.3C 281.9857 16.464785 282.14932 15.63609 282.48 14.8689995C 282.78055 14.182577 283.21698 13.56414 283.763 13.051C 284.29593 12.553155 284.9196 12.162397 285.6 11.9C 286.28714 11.633511 287.018 11.497847 287.755 11.5zM287.822 14C 287.24698 13.9934845 286.68607 14.177762 286.227 14.524C 285.72604 14.933596 285.40344 15.5214615 285.327 16.164L285.327 16.164L289.98898 16.164C 290.0141 15.5982065 289.83167 15.042724 289.47598 14.601999C 289.0428 14.16355 288.4357 13.942595 287.822 14z" stroke="none" fill="#4B91FA" fill-rule="evenodd" />
	<g transform="matrix(0.9982312 0 0 0.9936707 69.47588 -25.674465)">
	</g>
    <path transform="matrix(0.9982312 0 0 0.9936707 69.47588 -25.674465)"  d="M8.343 68.444L12.715 53.9L9.369 53.9L7.651 60.681C 7.4430003 61.481003 7.249667 62.258003 7.071 63.012C 6.892334 63.766006 6.6923337 64.54301 6.471 65.343L6.471 65.343L6.38 65.343C 6.172001 64.54301 5.982334 63.766006 5.811 63.012C 5.6396666 62.258 5.442666 61.481 5.22 60.681L5.22 60.681L3.48 53.9L0 53.9L4.395 68.444L8.343 68.444z" stroke="none" fill="#4B91FA" fill-rule="evenodd" />
	<g transform="matrix(0.9982312 0 0 0.9936707 49.01914 -29.306332)">
	</g>
    <path transform="matrix(0.9982312 0 0 0.9936707 49.01914 -29.306332)"  d="M42.755 60.5C 43.524883 60.485336 44.29022 60.621216 45.008 60.9C 45.62787 61.144028 46.184444 61.525223 46.635998 62.015003C 47.074844 62.50343 47.40904 63.07653 47.617996 63.699005C 47.846397 64.37808 47.959625 65.090576 47.952995 65.80701C 47.95429 66.078995 47.939262 66.350815 47.907997 66.62101C 47.878 66.86635 47.84833 67.056015 47.818996 67.19001L47.818996 67.19001L40.368 67.19001C 40.46636 67.93215 40.87065 68.59933 41.483 69.03001C 42.111317 69.4232 42.84213 69.621216 43.583 69.59901C 44.069077 69.6015 44.55322 69.537575 45.022 69.409004C 45.51243 69.26796 45.98722 69.07731 46.439 68.840004L46.439 68.840004L47.51 70.803C 46.858303 71.21662 46.151268 71.5358 45.41 71.751C 44.672485 71.9762 43.906113 72.09275 43.135 72.097C 42.31572 72.10417 41.501163 71.9723 40.725998 71.707C 40.008915 71.462364 39.348686 71.07527 38.784996 70.569C 38.229446 70.06045 37.786602 69.44115 37.484997 68.751C 36.845596 67.18544 36.845596 65.431564 37.484997 63.865997C 37.785454 63.17955 38.221905 62.5611 38.767998 62.047997C 39.2997 61.55179 39.921585 61.162094 40.6 60.9C 41.287125 60.633537 42.018017 60.49787 42.755 60.5zM42.822002 63C 42.247017 62.99349 41.686096 63.177765 41.227 63.524C 40.726063 63.933594 40.403454 64.52146 40.327 65.164L40.327 65.164L44.989 65.164C 45.014034 64.59823 44.831608 64.04277 44.475998 63.602C 44.042774 63.16355 43.435696 62.942596 42.822 63z" stroke="none" fill="#4B91FA" fill-rule="evenodd" />
	<g transform="matrix(0.9982312 0 0 0.9936707 29.199259 -29.306332)">
	</g>
    <path transform="matrix(0.9982312 0 0 0.9936707 29.199259 -29.306332)"  d="M76.129 72.1L76.129 64.448C 76.450905 64.11284 76.814545 63.820446 77.211 63.578C 77.56857 63.378864 77.97281 63.27875 78.381996 63.288C 78.86539 63.233498 79.34367 63.426388 79.654 63.801C 79.92974 64.29704 80.05386 64.86309 80.011 65.429L80.011 65.429L80.011 72.1L83.29 72.1L83.29 65.006C 83.35433 63.841866 83.0499 62.6871 82.42 61.705997C 81.765564 60.86969 80.73432 60.41871 79.675995 60.505997C 78.91901 60.487694 78.17002 60.664352 77.50099 61.018997C 76.89954 61.349155 76.34748 61.762196 75.86099 62.246L75.86099 62.246L75.771996 62.246L75.52699 60.774L72.85 60.774L72.85 72.1L76.129 72.1z" stroke="none" fill="#4B91FA" fill-rule="evenodd" />
	<g transform="matrix(0.9982312 0 0 0.9936707 10.45647 -25.674465)">
	</g>
    <path transform="matrix(0.9982312 0 0 0.9936707 10.45647 -25.674465)"  d="M114.29 68.444C 114.95641 68.44843 115.62154 68.38477 116.275 68.254C 116.88501 68.127335 117.43534 67.98967 117.926 67.840996L117.926 67.840996L117.346 65.476C 117.00794 65.59807 116.66133 65.69499 116.309 65.766C 115.91609 65.84323 115.51641 65.88075 115.116 65.878C 114.48353 65.93253 113.8539 65.745285 113.354 65.354C 112.92963 64.85557 112.727974 64.20506 112.796 63.553997L112.796 63.553997L112.796 59.678L117.458 59.678L117.458 57.112L112.8 57.112L112.8 53.9L110.100006 53.9L109.676 57.112L106.754005 57.246L106.754005 59.677L109.520004 59.677L109.520004 63.577C 109.51239 64.24665 109.594795 64.91428 109.76501 65.562C 109.91316 66.12795 110.19196 66.6513 110.57901 67.09C 110.9875 67.534035 111.49586 67.87442 112.06201 68.08299C 112.77607 68.33965 113.53143 68.46204 114.29 68.444z" stroke="none" fill="#4B91FA" fill-rule="evenodd" />
	<g transform="matrix(0.9982312 0 0 0.9936707 -9.225657 -29.306332)">
	</g>
    <path transform="matrix(0.9982312 0 0 0.9936707 -9.225657 -29.306332)"  d="M145.941 72.1C 146.67258 72.11882 147.39641 71.94648 148.041 71.6C 148.65747 71.24725 149.20825 70.79052 149.669 70.25L149.669 70.25L149.75801 70.25L150 72.1L152.677 72.1L152.677 60.5L149.4 60.5L149.4 68.04C 149.11275 68.43708 148.75313 68.77636 148.34 69.04C 148.00252 69.22256 147.62361 69.31487 147.23999 69.308C 146.7557 69.369225 146.27429 69.17507 145.96799 68.795C 145.70828 68.29362 145.59235 67.73018 145.63298 67.167L145.63298 67.167L145.63298 60.5L142.35 60.5L142.35 67.594C 142.28638 68.75506 142.5825 69.90747 143.19801 70.894005C 143.84683 71.73747 144.88083 72.192085 145.941 72.1z" stroke="none" fill="#4B91FA" fill-rule="evenodd" />
	<g transform="matrix(0.9982312 0 0 0.9936707 -30.068722 -29.306332)">
	</g>
    <path transform="matrix(0.9982312 0 0 0.9936707 -30.068722 -29.306332)"  d="M183.329 72.1L183.329 66.077C 183.68217 65.226204 184.27528 64.49655 185.036 63.977005C 185.6402 63.593315 186.33934 63.385548 187.055 63.377007C 187.4023 63.371502 187.74939 63.39761 188.092 63.455006C 188.40462 63.51639 188.71375 63.594505 189.01799 63.689007L189.01799 63.689007L189.687 60.945007C 189.38214 60.804005 189.06476 60.69185 188.739 60.61001C 188.34698 60.526775 187.94667 60.489193 187.546 60.49801C 186.66927 60.493454 185.80688 60.720436 185.046 61.15601C 184.22122 61.646477 183.53738 62.34202 183.061 63.17501L183.061 63.17501L182.994 63.17501L182.726 60.76601L180.05 60.76601L180.05 72.1L183.329 72.1z" stroke="none" fill="#4B91FA" fill-rule="evenodd" />
	<g transform="matrix(0.9982312 0 0 0.9936707 -47.73342 -29.306332)">
	</g>
    <path transform="matrix(0.9982312 0 0 0.9936707 -47.73342 -29.306332)"  d="M217.755 60.5C 218.52489 60.485367 219.2902 60.621243 220.00801 60.9C 220.62788 61.14403 221.18446 61.525223 221.63602 62.015003C 222.0749 62.50339 222.4091 63.076504 222.61801 63.699005C 222.84642 64.37808 222.95966 65.09058 222.95302 65.80701C 222.95438 66.078995 222.93935 66.350815 222.90802 66.62101C 222.87802 66.86635 222.84836 67.056015 222.81902 67.19001L222.81902 67.19001L215.36801 67.19001C 215.46635 67.93215 215.87065 68.59933 216.48302 69.03001C 217.11133 69.4232 217.84215 69.62122 218.58302 69.59901C 219.0691 69.60149 219.55325 69.53756 220.02202 69.409004C 220.51247 69.26799 220.98727 69.07733 221.43903 68.840004L221.43903 68.840004L222.51003 70.803C 221.8583 71.2166 221.15128 71.535774 220.41002 71.751C 219.67252 71.976204 218.90613 72.092766 218.13503 72.097C 217.31575 72.10414 216.50119 71.972275 215.72603 71.707C 215.00891 71.46241 214.34868 71.07532 213.78503 70.569C 213.22968 70.06029 212.78685 69.44103 212.48503 68.751C 211.84564 67.18544 211.84564 65.431564 212.48503 63.865997C 212.78552 63.179577 213.22197 62.56114 213.76804 62.047997C 214.29971 61.55177 214.9216 61.16207 215.6 60.9C 216.28712 60.63351 217.018 60.497845 217.755 60.5zM217.822 63C 217.24702 62.99349 216.6861 63.177765 216.227 63.524C 215.72606 63.933594 215.40346 64.52146 215.32701 65.164L215.32701 65.164L219.98901 65.164C 220.01404 64.59823 219.83162 64.04277 219.47601 63.602C 219.04279 63.16355 218.43571 62.942593 217.822 63z" stroke="none" fill="#4B91FA" fill-rule="evenodd" />
	<g transform="matrix(0.9982312 0 0 0.9936707 -67.02824 -29.306332)">
	</g>
    <path transform="matrix(0.9982312 0 0 0.9936707 -67.02824 -29.306332)"  d="M252.321 72.1C 253.11424 72.11201 253.90556 72.01818 254.674 71.821C 255.28018 71.6684 255.85535 71.41195 256.374 71.062996C 256.80142 70.77173 257.15622 70.38614 257.41098 69.936C 257.6485 69.506035 257.77145 69.0222 257.76797 68.531C 257.7776 68.09125 257.66138 67.6579 257.43298 67.282C 257.2031 66.91784 256.89917 66.606094 256.541 66.367C 256.13696 66.09768 255.70262 65.87682 255.24698 65.709C 254.75632 65.523 254.23566 65.35634 253.68498 65.209C 253.37932 65.12682 253.07881 65.02665 252.78499 64.909C 252.56625 64.824745 252.36337 64.70403 252.18498 64.551994C 252.04872 64.44333 251.96716 64.28021 251.96198 64.105995C 251.96234 63.822067 252.13417 63.566483 252.39697 63.458996C 252.86954 63.27894 253.37537 63.202877 253.87997 63.235996C 254.45119 63.234066 255.01802 63.33571 255.55298 63.535995C 255.70663 63.679276 255.85568 63.827328 256 63.98L256 63.98L257.472 62.017C 256.8116 61.605045 256.11304 61.25777 255.38599 60.98C 254.52838 60.65154 253.61627 60.488663 252.69798 60.5C 251.97977 60.49157 251.26357 60.577984 250.56798 60.757C 249.99762 60.899925 249.45493 61.13647 248.96198 61.457C 248.54118 61.735035 248.19315 62.109825 247.94698 62.55C 247.70946 62.97997 247.58652 63.463802 247.58998 63.954998C 247.58232 64.37503 247.70303 64.78739 247.93597 65.137C 248.17813 65.48975 248.48322 65.79485 248.83597 66.037C 249.22852 66.30829 249.65137 66.53281 250.09596 66.706C 250.56631 66.89265 251.04674 67.0529 251.53496 67.186005C 252.42696 67.438675 253.14462 67.672005 253.68796 67.886C 254.2313 68.100006 254.50262 68.379005 254.50195 68.723C 254.49481 69.03224 254.30049 69.30612 254.01096 69.415C 253.49184 69.61128 252.93686 69.6948 252.38295 69.66C 251.67197 69.66554 250.96564 69.54466 250.29695 69.303C 249.62201 69.05137 248.97516 68.72996 248.36696 68.344L248.36696 68.344L246.9 70.4C 247.67848 70.90544 248.51869 71.30875 249.4 71.6C 250.33902 71.928185 251.32628 72.09718 252.321 72.1z" stroke="none" fill="#4B91FA" fill-rule="evenodd" />
</g>
</svg>