<svg width="184" height="28" viewBox="0 0 184 28" fill="none" xmlns="http://www.w3.org/2000/svg">
<path d="M27.7939 14.2925C27.7756 17.0011 26.9556 19.6435 25.4375 21.8867C23.9193 24.1298 21.771 25.8732 19.2633 26.8971C16.7557 27.9209 14.001 28.1792 11.3467 27.6396C8.69244 27.0999 6.25737 25.7864 4.34858 23.8647C2.4398 21.943 1.14277 19.4991 0.621072 16.8412C0.0993693 14.1833 0.376348 11.4305 1.41708 8.92979C2.45781 6.42911 4.2157 4.29259 6.46906 2.78964C8.72242 1.28669 11.3704 0.484609 14.0789 0.484547C17.7287 0.496991 21.224 1.95872 23.7961 4.5482C26.3681 7.13768 27.8062 10.6428 27.7939 14.2925ZM42.8389 14.2925C42.8389 21.4715 39.7689 27.2925 35.9819 27.2925C32.1949 27.2925 29.125 21.4715 29.125 14.2925C29.125 7.11355 32.1949 1.29255 35.9819 1.29255C39.7689 1.29255 42.8389 7.11355 42.8389 14.2925ZM48.993 14.2925C48.993 20.7245 47.9129 25.9385 46.5809 25.9385C45.2489 25.9385 44.1649 20.7235 44.1649 14.2925C44.1649 7.86155 45.2449 2.64655 46.577 2.64655C47.909 2.64655 48.9879 7.86055 48.9879 14.2925H48.993ZM86.8439 1.68155L86.882 1.67355V1.37355H79.0819L71.84 18.3985L64.5979 1.37755H56.1979V1.67755L56.236 1.68555C57.66 2.00655 58.382 2.48555 58.382 4.21455V24.4425C58.382 26.1705 57.6559 26.6495 56.2329 26.9715L56.195 26.9795V27.2795H61.895V26.9795L61.8569 26.9715C60.4329 26.6505 59.711 26.1715 59.711 24.4425V5.38355L69.0109 27.2765H69.5389L79.1129 4.77655V24.9465C78.9909 26.3115 78.2749 26.7325 76.9859 27.0245L76.948 27.0335V27.3265H86.881V27.0335L86.8429 27.0245C85.5529 26.7335 84.819 26.3115 84.697 24.9465L84.6909 4.20555H84.698C84.698 2.47755 85.421 1.99855 86.8439 1.67655V1.68155ZM91.381 15.0765C91.544 11.4415 92.8489 8.81755 95.0399 8.77655C95.6655 8.76765 96.2697 9.00423 96.7229 9.43555C97.6589 10.3445 98.099 12.2425 98.031 15.0805L91.381 15.0765ZM91.281 16.1015H102.925V16.0525C102.985 14.8749 102.803 13.6975 102.392 12.5924C101.981 11.4873 101.349 10.4777 100.534 9.62555C99.0457 8.2998 97.1095 7.58885 95.117 7.63655H95.0699C93.9108 7.63856 92.7658 7.89063 91.713 8.37555C90.6151 8.89119 89.6518 9.65454 88.8989 10.6055C87.561 12.3693 86.7844 14.4947 86.67 16.7055C86.664 16.7775 86.6589 16.8485 86.6539 16.9205C86.6489 16.9925 86.646 17.0565 86.642 17.1205C86.6253 17.4539 86.6196 17.7905 86.6249 18.1305C86.7509 23.5495 89.679 27.8805 94.878 27.8805C99.442 27.8805 102.1 24.5445 102.762 20.0655L102.427 19.9475C101.263 22.3545 99.1719 23.8125 96.7919 23.6345C93.5429 23.3915 91.0549 20.0975 91.2799 16.1075L91.281 16.1015ZM116.087 23.4505C115.905 23.8889 115.591 24.2595 115.188 24.5105C114.785 24.7615 114.314 24.8804 113.84 24.8505C113.237 24.7955 112.661 24.5731 112.177 24.2082C111.693 23.8433 111.321 23.3506 111.103 22.7855C110.275 20.952 109.886 18.9507 109.966 16.9405C109.966 11.9575 111.516 8.73455 113.915 8.73455C114.373 8.71436 114.827 8.83452 115.215 9.07898C115.603 9.32343 115.907 9.68053 116.087 10.1025V23.4505ZM123.81 27.0025C122.386 26.6655 121.664 26.1645 121.664 24.3475V0.185547L113.015 2.73355V3.04555H113.068C113.492 2.9586 113.93 2.95806 114.355 3.04396C114.78 3.12987 115.183 3.30046 115.54 3.54555C115.739 3.75832 115.891 4.01098 115.985 4.2868C116.08 4.56263 116.114 4.85533 116.087 5.14555V8.45855C115.155 7.89236 114.077 7.61115 112.987 7.64955C111.766 7.6439 110.558 7.90558 109.449 8.41624C108.339 8.92689 107.355 9.67414 106.565 10.6055C104.771 12.8239 103.839 15.6163 103.943 18.4675C103.943 24.0995 106.715 27.8845 110.843 27.8845C111.978 27.9115 113.094 27.5838 114.034 26.9469C114.974 26.31 115.692 25.3958 116.088 24.3315V27.3255H123.849V27.0155L123.81 27.0025ZM131.228 3.46955C131.237 3.06188 131.164 2.65655 131.012 2.27806C130.86 1.89957 130.633 1.55576 130.345 1.26742C130.057 0.979079 129.713 0.752181 129.334 0.600437C128.956 0.448692 128.551 0.37525 128.143 0.384547C127.738 0.384547 127.337 0.464342 126.962 0.619378C126.588 0.774414 126.248 1.00165 125.962 1.28812C125.675 1.57459 125.448 1.91468 125.293 2.28897C125.138 2.66326 125.058 3.06442 125.058 3.46955C125.058 3.87467 125.138 4.27584 125.293 4.65013C125.448 5.02441 125.675 5.3645 125.962 5.65097C126.248 5.93744 126.588 6.16468 126.962 6.31972C127.337 6.47475 127.738 6.55455 128.143 6.55455C128.551 6.56384 128.956 6.4904 129.334 6.33866C129.713 6.18691 130.057 5.96001 130.345 5.67167C130.633 5.38333 130.86 5.03953 131.012 4.66104C131.164 4.28254 131.237 3.87722 131.228 3.46955ZM133.272 27.0055C131.848 26.6685 131.126 26.1675 131.126 24.3505H131.12V7.70555L123.359 9.93355V10.2335H123.406C125.085 10.3825 125.545 10.9615 125.545 12.9235V27.3235H133.313V27.0135L133.272 27.0055ZM153.16 27.0055C151.736 26.6685 151.014 26.1675 151.014 24.3505V7.70555L143.624 9.86055V10.1605H143.668C145.041 10.3045 145.438 10.9165 145.438 12.8875V23.4155C145.22 23.8555 144.884 24.2266 144.468 24.4878C144.052 24.749 143.572 24.8901 143.081 24.8955C141.394 24.8955 140.465 23.7555 140.465 21.6865V7.70555L132.704 9.93355V10.2335H132.751C134.43 10.3825 134.89 10.9605 134.89 12.9235V21.8315C134.886 22.4532 134.94 23.0739 135.052 23.6855L135.192 24.2935C135.849 26.6485 137.571 27.8795 140.268 27.8795C141.395 27.8693 142.493 27.5171 143.416 26.8695C144.339 26.2218 145.044 25.3093 145.437 24.2525V27.3265H153.198V27.0165L153.16 27.0055ZM183.311 27.3235V27.0125L183.273 27.0035C181.728 26.6475 181.127 25.9755 181.127 24.6035V13.2825C181.127 9.75155 179.144 7.64355 175.821 7.64355C174.682 7.61668 173.562 7.94745 172.621 8.5894C171.679 9.23134 170.962 10.1522 170.571 11.2225C169.947 8.91255 168.149 7.64355 165.492 7.64355C164.422 7.59956 163.367 7.89682 162.477 8.49237C161.588 9.08792 160.911 9.9509 160.544 10.9565V7.70555L152.783 9.84255V10.1425H152.83C154.489 10.2895 154.969 10.8845 154.969 12.7975V27.3225H162.211V27.0125L162.173 27.0035C160.941 26.7135 160.543 26.1855 160.543 24.8305V11.8485C160.705 11.3694 161.011 10.9522 161.42 10.6543C161.828 10.3565 162.319 10.1927 162.825 10.1855C164.438 10.1855 165.256 11.3035 165.256 13.5055V27.3225H172.499V27.0125L172.461 27.0035C171.229 26.7135 170.831 26.1855 170.831 24.8305V13.2815C170.835 12.8498 170.801 12.4185 170.731 11.9925C170.893 11.4806 171.211 11.0317 171.639 10.708C172.068 10.3843 172.586 10.2017 173.123 10.1855C174.759 10.1855 175.554 11.2715 175.554 13.5055V27.3225L183.311 27.3235Z" fill="white"/>
</svg>
